<svg width="64" height="64" viewBox="0 0 64 64" fill="none" xmlns="http://www.w3.org/2000/svg">
<path d="M11.75 13.375C11.75 11.6842 12.4612 10.0627 13.727 8.86719C14.9929 7.67165 16.7098 7 18.5 7H45.5C47.2902 7 49.0071 7.67165 50.273 8.86719C51.5388 10.0627 52.25 11.6842 52.25 13.375V56.4062C52.2498 56.6945 52.1669 56.9774 52.01 57.2247C51.8531 57.4719 51.6281 57.6744 51.359 57.8105C51.0899 57.9465 50.7868 58.0111 50.4819 57.9974C50.177 57.9836 49.8817 57.892 49.6276 57.7323L32 48.7594L14.3724 57.7323C14.1183 57.892 13.823 57.9836 13.5181 57.9974C13.2132 58.0111 12.9101 57.9465 12.641 57.8105C12.3719 57.6744 12.1469 57.4719 11.99 57.2247C11.8331 56.9774 11.7502 56.6945 11.75 56.4062V13.375ZM18.5 10.1875C17.6049 10.1875 16.7464 10.5233 16.1135 11.1211C15.4806 11.7189 15.125 12.5296 15.125 13.375V53.4291L31.0651 45.5177C31.3421 45.3437 31.6673 45.2508 32 45.2508C32.3327 45.2508 32.6579 45.3437 32.9349 45.5177L48.875 53.4291V13.375C48.875 12.5296 48.5194 11.7189 47.8865 11.1211C47.2535 10.5233 46.3951 10.1875 45.5 10.1875H18.5Z" fill="#374151"/>
<g clip-path="url(#clip0_18_2)">
<path d="M40.144 28.088C39.36 26.954 37.869 26.226 35.671 25.904C35.041 25.806 34.425 25.757 33.823 25.757C31.597 25.757 29.413 26.156 27.271 26.954C25.647 27.556 24.415 28.256 23.575 29.054C23.029 29.544 22.756 30.006 22.756 30.44C22.756 30.706 22.826 30.93 22.966 31.112C23.106 31.294 23.141 31.406 23.071 31.448C23.001 31.49 22.931 31.476 22.861 31.406C22.511 31 22.336 30.489 22.336 29.873C22.336 28.865 22.735 28.039 23.533 27.395C24.625 26.527 26.144 25.806 28.09 25.232C30.05 24.644 31.891 24.35 33.613 24.35C35.335 24.35 36.749 24.588 37.855 25.064C40.039 25.988 41.131 27.577 41.131 29.831C41.131 31.665 40.326 33.422 38.716 35.102C36.812 37.076 34.075 38.364 30.505 38.966C29.427 39.148 28.447 39.239 27.565 39.239C24.499 39.239 22.644 38.609 22 37.349C21.93 37.209 21.895 37.125 21.895 37.097C21.895 36.985 22.007 37.013 22.231 37.181C23.071 37.769 24.443 38.063 26.347 38.063C28.265 38.063 30.218 37.783 32.206 37.223C34.208 36.649 35.93 35.816 37.372 34.724C38.45 33.912 39.269 33.093 39.829 32.267C40.417 31.399 40.711 30.629 40.711 29.957C40.711 29.271 40.522 28.648 40.144 28.088ZM31.513 26.45H31.786C31.884 26.45 31.933 26.471 31.933 26.513C31.933 26.611 31.877 26.716 31.765 26.828C30.575 28.144 29.294 29.796 27.922 31.784C26.564 33.758 25.696 35.249 25.318 36.257C25.276 36.369 25.227 36.425 25.171 36.425C25.045 36.425 24.982 36.355 24.982 36.215C24.982 35.459 26.004 33.646 28.048 30.776C30.092 27.892 31.247 26.45 31.513 26.45Z" fill="#374151"/>
<path d="M39.28 23.892C39.28 23.972 39.236 24.012 39.148 24.012C39.068 24.012 39.028 23.964 39.028 23.868C39.076 23.284 39.284 22.628 39.652 21.9C39.3 21.94 38.796 22.016 38.14 22.128C38.076 22.136 38.044 22.084 38.044 21.972C38.044 21.86 38.06 21.752 38.092 21.648C38.132 21.536 38.18 21.48 38.236 21.48C38.796 21.424 39.36 21.396 39.928 21.396C40.264 20.844 40.636 20.364 41.044 19.956C41.092 19.908 41.152 19.884 41.224 19.884C41.304 19.884 41.392 19.9 41.488 19.932C41.592 19.956 41.62 19.988 41.572 20.028C41.148 20.468 40.764 20.924 40.42 21.396C41.18 21.404 41.76 21.464 42.16 21.576C42.216 21.592 42.244 21.624 42.244 21.672C42.244 21.72 42.224 21.764 42.184 21.804C42.152 21.844 42.108 21.864 42.052 21.864C41.716 21.832 41.384 21.816 41.056 21.816C40.736 21.816 40.42 21.832 40.108 21.864C39.596 22.648 39.32 23.324 39.28 23.892Z" fill="#374151"/>
</g>
<defs>
<clipPath id="clip0_18_2">
<rect width="29" height="37" fill="white" transform="translate(17 14)"/>
</clipPath>
</defs>
</svg>
