<svg width="256" height="193" viewBox="0 0 256 193" fill="none" xmlns="http://www.w3.org/2000/svg">
<g clip-path="url(#clip0_13_23)">
<path d="M140.515 191.333L210.772 146.905C211.032 146.745 211.372 146.815 211.532 147.075C211.692 147.335 211.622 147.675 211.362 147.835L140.875 192.403C140.785 192.463 140.685 192.493 140.585 192.493L140.515 191.333V191.333Z" fill="url(#paint0_linear_13_23)"/>
<path d="M140.585 192.493C140.525 192.493 140.455 192.483 140.395 192.463L44.608 156.764C44.5397 156.739 44.4771 156.701 44.4239 156.652C44.3706 156.602 44.3278 156.543 44.298 156.477C44.2681 156.41 44.2519 156.339 44.2502 156.266C44.2484 156.194 44.2613 156.122 44.288 156.054C44.398 155.764 44.708 155.624 44.998 155.734L140.535 191.333L140.585 192.493V192.493Z" fill="url(#paint1_linear_13_23)"/>
<path d="M241.1 21.81L230.041 40.119L185.613 59.009L183.143 60.059L143.214 97.397C142.444 98.167 141.924 99.267 141.834 99.877C141.794 100.087 141.614 99.997 141.444 99.987C141.264 99.977 141.014 100.047 140.994 99.827C140.974 99.027 140.884 98.137 139.594 97.337L119.585 84.377L104.995 74.917L63.898 64.378L29.498 55.558L7.71002 21.71L8.04002 21.33L8.06002 21.3L89.857 0.0400095C89.977 9.52184e-06 89.997 0.0200095 90.047 0.0900095L117.945 41.879L118.495 42.699C119.095 43.579 119.155 44.119 119.155 44.509H119.665V44.419C119.665 44.379 119.665 44.329 119.675 44.279C119.675 44.249 119.685 44.219 119.685 44.179C119.695 44.139 119.695 44.099 119.705 44.059C119.715 44.019 119.715 43.979 119.725 43.929C119.755 43.789 119.795 43.629 119.835 43.469C119.845 43.419 119.865 43.369 119.875 43.329C119.925 43.169 119.975 42.999 120.035 42.839C120.065 42.779 120.085 42.709 120.115 42.649C120.195 42.449 120.275 42.269 120.365 42.109C120.445 41.949 120.525 41.819 120.605 41.709L145.755 5.13001C145.815 5.04001 145.845 5.00001 145.975 5.02001L240.941 21.36L241.101 21.81H241.1Z" fill="#E8B67F"/>
<path d="M119.585 84.367H119.575L104.996 74.918L63.898 64.378L119.155 44.509L119.305 44.219V44.509L119.585 84.367Z" fill="url(#paint2_linear_13_23)"/>
<path d="M119.155 44.509L63.898 64.368L58.918 63.088L29.498 55.538L7.71002 21.69L8.06002 21.28L89.857 0.01999C89.977 -0.02001 89.997 -1.00061e-05 90.047 0.06999L117.945 41.859L118.495 42.679C119.095 43.579 119.155 44.119 119.155 44.509V44.509Z" fill="url(#paint3_linear_13_23)"/>
<path d="M119.35 46.619L67.102 65.398L58.952 63.308L117.98 42.088L118.53 42.908C119.13 43.788 119.19 44.328 119.19 44.718H119.34L119.35 46.618V46.619Z" fill="url(#paint4_linear_13_23)"/>
<path d="M30.249 55.738L29.509 55.548L7.71997 21.7L8.04997 21.32L30.249 55.738Z" fill="#D2A679"/>
<path d="M185.613 59.008L183.143 60.058L143.214 97.397C142.444 98.167 141.924 99.267 141.834 99.877C141.794 100.087 141.614 99.997 141.444 99.987C141.264 99.977 141.014 100.047 140.994 99.827C140.974 99.027 140.884 98.137 139.594 97.337L119.585 84.367L119.315 44.519V44.229L119.685 44.519L185.613 59.009V59.008Z" fill="url(#paint5_linear_13_23)"/>
<path d="M241.1 21.81L230.041 40.119L189.603 57.309L185.623 58.999L119.675 44.509C119.635 43.999 119.985 42.839 120.365 42.099C120.445 41.939 120.525 41.809 120.605 41.699L145.755 5.11999C145.815 5.02999 145.845 4.98999 145.975 5.00999L240.941 21.35L241.101 21.81H241.1Z" fill="url(#paint6_linear_13_23)"/>
<path d="M189.603 57.308L183.153 60.048L182.323 60.848L119.305 46.918L119.595 44.498H119.675C119.635 43.988 119.985 42.828 120.365 42.088L189.603 57.308V57.308Z" fill="url(#paint7_linear_13_23)"/>
<path opacity="0.75" d="M121.055 44.809V85.317L119.585 84.367H119.575L117.645 83.107V45.049L119.155 44.509H119.665L121.055 44.809Z" fill="url(#paint8_linear_13_23)"/>
<path d="M140.195 191.843L44.328 156.074C43.788 155.844 43.708 155.334 43.678 154.704C43.678 154.704 39.558 73.008 39.548 72.998C39.538 72.788 39.798 72.658 39.778 72.528C39.708 72.218 39.118 71.048 38.928 70.928L0 48.808L0.33 48.058L104.996 74.918L139.585 97.327C140.875 98.127 140.975 99.017 140.985 99.817C140.995 100.037 141.255 99.967 141.435 99.977C141.615 99.987 141.785 100.077 141.825 99.867C141.915 99.257 142.435 98.157 143.205 97.397L183.133 60.058L255.54 29.28L255.98 29.89L216.892 64.239C216.132 64.999 215.782 65.929 215.932 66.309L211.932 146.376C211.872 146.886 211.632 147.036 211.122 147.386L141.045 191.744C140.765 191.924 140.465 191.974 140.195 191.844V191.843Z" fill="#BF9064"/>
<path d="M141.434 99.977L140.744 191.883C140.558 191.935 140.36 191.921 140.184 191.843L44.318 156.084C43.778 155.854 43.698 155.334 43.668 154.714L39.538 73.008V72.988C39.538 72.968 39.538 72.948 39.548 72.928C39.548 72.908 39.558 72.898 39.568 72.888C39.578 72.868 39.588 72.858 39.598 72.838C39.608 72.818 39.618 72.808 39.628 72.788C39.668 72.728 39.728 72.668 39.748 72.618C39.758 72.608 39.758 72.598 39.758 72.588V72.578L140.995 99.857C141.035 100.037 141.275 99.967 141.435 99.977H141.434Z" fill="#BD8F63"/>
<path opacity="0.54" d="M140.755 191.613V191.873C140.569 191.925 140.371 191.911 140.195 191.833L44.328 156.074C43.948 155.914 43.798 155.604 43.728 155.224L140.755 191.613V191.613Z" fill="url(#paint9_linear_13_23)"/>
<path d="M97.406 135.865L134.525 148.005L134.435 184.203L98.006 170.823L97.406 135.865ZM116.006 160.185L116.096 176.954L134.074 183.558V166.464L116.005 160.184L116.006 160.185ZM121.317 165.602L124.95 171.384L128.509 168.266L129.129 168.973L125.456 172.19L129.137 178.048L128.604 178.383L124.976 172.61L121.435 175.714L120.815 175.007L124.47 171.804L120.784 165.937L121.317 165.602V165.602ZM132.015 172.114V173.764L132.965 174.074V175.934L132.015 175.554V177.054L129.935 173.894L132.015 172.114V172.114ZM128.815 170.104L129.545 170.334V176.924L128.815 176.664V170.104ZM98.136 153.974L98.406 170.484L115.586 176.764L115.486 160.034L98.136 153.974ZM124.996 173.654L126.876 176.684L123.126 175.324L124.996 173.654ZM127.895 170.874V175.174L125.945 172.424L127.895 170.874ZM120.455 167.044L121.175 167.284V173.864L120.455 173.614V167.044V167.044ZM122.075 168.814L123.935 171.684L122.075 173.114V168.814ZM106.535 160.844L107.245 161.074L107.247 161.496C109.361 162.346 111.449 164.466 112.456 167.764C111.796 166.654 111.216 166.444 110.186 166.794C109.806 166.004 108.686 165.584 108.016 166.004C107.846 165.68 107.587 165.41 107.27 165.228L107.306 171.504C107.306 172.084 106.906 172.604 105.916 172.404C105.016 172.184 104.646 171.494 104.746 170.314L105.246 170.394C105.246 171.184 105.306 171.634 105.906 171.774C106.416 171.894 106.646 171.704 106.646 171.234L106.58 165.009C106.296 164.989 106.033 165.059 105.846 165.224C105.616 164.644 104.526 163.864 103.706 164.444C103.126 163.524 102.036 163.174 101.426 163.844C102.205 161.489 104.32 160.664 106.539 161.259L106.536 160.844H106.535ZM117.915 166.974L119.945 170.174L117.935 171.844L117.975 170.274L116.995 170.044V168.224L117.915 168.564V166.974ZM123.065 167.664L126.865 169.044L124.965 170.714L123.065 167.664V167.664ZM115.975 142.464L116.015 159.564L134.085 165.864V148.394L115.975 142.464V142.464ZM119.345 157.234L130.145 160.924V163.074L119.345 159.354V157.234V157.234ZM110.007 161.303L110.046 161.314C110.116 161.384 110.116 162.134 109.886 162.304C109.818 162.335 109.743 162.346 109.669 162.337C109.595 162.329 109.525 162.3 109.466 162.254C109.326 162.144 109.246 161.984 109.306 161.744C109.366 161.504 109.966 161.244 110.046 161.314L110.007 161.303ZM111.007 159.593L111.046 159.604C111.126 159.674 111.126 160.424 110.886 160.594C110.818 160.625 110.743 160.636 110.669 160.627C110.595 160.619 110.525 160.59 110.466 160.544C110.326 160.434 110.246 160.274 110.306 160.034C110.366 159.794 110.966 159.534 111.046 159.604L111.007 159.593ZM108.207 159.523L108.246 159.534C108.326 159.604 108.326 160.354 108.086 160.524C108.018 160.555 107.943 160.566 107.869 160.557C107.795 160.549 107.725 160.52 107.666 160.474C107.526 160.364 107.446 160.204 107.506 159.964C107.566 159.724 108.166 159.464 108.246 159.534L108.207 159.523ZM105.377 159.113L105.416 159.124C105.496 159.194 105.496 159.944 105.256 160.114C105.188 160.145 105.113 160.156 105.039 160.147C104.965 160.139 104.895 160.11 104.836 160.064C104.696 159.954 104.616 159.794 104.676 159.554C104.736 159.314 105.336 159.054 105.416 159.124L105.377 159.113ZM127.685 147.885L130.305 153.055L128.515 152.445V159.935L126.725 159.315L126.735 151.885L124.955 151.305L127.685 147.885V147.885ZM97.796 136.505L98.106 153.375L115.496 159.355L115.346 142.265L97.796 136.505ZM121.776 145.915L124.396 151.085L122.606 150.475V157.965L120.816 157.345L120.836 149.915L119.046 149.335L121.776 145.915V145.915ZM101.686 139.895L103.106 140.365L103.766 142.755L103.026 142.705L105.136 147.805L104.046 143.605L104.666 143.595L104.036 140.665L111.366 143.085V147.115C111.366 148.645 109.706 150.575 107.366 149.615L107.376 153.665L110.736 155.825L102.606 153.005L105.876 153.165L105.816 149.155C103.496 148.465 101.816 145.675 101.816 143.975L101.686 139.895V139.895Z" fill="#322214"/>
<path d="M141.434 99.977C141.034 99.987 140.734 100.517 140.724 100.997L140.634 101.037L39.538 72.997C39.528 72.807 39.748 72.687 39.768 72.567C39.778 72.557 39.778 72.547 39.768 72.537C39.698 72.227 39.108 71.057 38.918 70.937L0 48.81L0.33 48.06L104.986 74.909H104.996L139.585 97.318C140.875 98.128 140.975 99.008 140.985 99.808C140.985 99.818 140.985 99.838 140.995 99.848C141.035 100.038 141.275 99.968 141.435 99.978L141.434 99.977Z" fill="url(#paint10_linear_13_23)"/>
<path d="M216.902 64.228C216.142 64.988 215.792 65.918 215.942 66.298L142.314 101.137L142.164 101.017C142.154 100.437 141.784 100.047 141.504 99.987C141.654 100.007 141.794 100.057 141.834 99.867C141.854 99.747 141.884 99.607 141.934 99.457C141.974 99.327 142.034 99.187 142.104 99.037C142.314 98.557 142.634 98.037 143.044 97.577C143.104 97.517 143.164 97.447 143.224 97.387L183.153 60.048L255.56 29.27L256 29.88L216.902 64.229V64.228Z" fill="#CD9C6B"/>
<path d="M95.996 109.136C96.106 109.166 96.146 109.176 96.146 109.086L95.766 88.747C95.736 88.057 95.566 86.697 94.736 86.147L57.868 63.748L40.588 59.288L78.057 81.678C78.997 82.298 79.077 83.458 79.117 84.318L79.657 104.096C79.657 104.196 79.677 104.216 79.747 104.246L95.997 109.136H95.996Z" fill="url(#paint11_linear_13_23)"/>
<path d="M141.434 99.977C141.024 99.987 140.724 100.547 140.724 101.037C140.714 101.077 140.644 101.067 140.634 101.037C140.554 99.947 140.104 98.727 139.514 98.297L104.646 75.817L104.986 74.907H104.996L139.585 97.317C140.875 98.127 140.975 99.007 140.985 99.807C140.985 99.817 140.985 99.837 140.995 99.847C141.035 100.037 141.275 99.967 141.435 99.977H141.434Z" fill="#D4A271"/>
<path d="M104.986 74.918L104.646 75.818L0 48.809L0.33 48.069L104.986 74.918Z" fill="#DEB37E"/>
<path d="M215.952 66.298L211.952 146.365C211.892 146.875 211.652 147.025 211.142 147.375L141.065 191.733C140.965 191.803 140.855 191.843 140.755 191.873L141.445 99.967C141.625 99.977 141.795 100.067 141.835 99.857C141.835 99.827 141.845 99.807 141.845 99.777L215.932 66.207C215.932 66.257 215.942 66.277 215.952 66.297V66.298Z" fill="#DBAD77"/>
<path opacity="0.54" d="M211.952 146.335V146.375C211.892 146.885 211.652 147.035 211.142 147.385L141.065 191.743C140.965 191.813 140.855 191.853 140.755 191.883V191.623L211.952 146.335V146.335Z" fill="url(#paint12_linear_13_23)"/>
<path d="M210.642 111.496L209.042 144.095L185.742 158.605L186.942 124.675L210.642 111.496V111.496ZM198.182 135.096L186.602 141.905L186.052 157.955L197.582 150.785L198.182 135.095V135.096ZM192.652 141.985L192.632 142.525C194.015 141.835 195.322 142.315 195.872 144.605C195.492 144.075 194.802 144.285 194.342 145.365C194.132 144.915 193.062 145.285 192.902 146.225C192.817 146.072 192.664 146.016 192.488 146.036L192.233 152.225C192.213 152.755 192.183 153.325 191.513 153.735C191.203 153.875 190.383 153.985 190.493 152.835L190.883 152.535C190.853 153.265 191.043 153.485 191.443 153.245C191.923 152.955 191.833 152.495 191.853 152.065L192.068 146.201C191.913 146.303 191.78 146.434 191.676 146.588C191.572 146.741 191.5 146.913 191.463 147.095C191.343 146.735 190.183 146.955 190.043 147.985C189.713 147.545 188.813 147.975 188.473 149.085C189.099 146.202 190.651 143.809 192.196 142.779L192.213 142.305L192.653 141.985H192.652ZM209.552 128.375L198.512 134.905L197.902 150.635L208.822 143.765L209.552 128.375V128.375ZM206.142 133.675L206.462 133.975L204.056 139.433L206.042 142.175L205.722 142.855L203.742 140.145L201.362 145.545L201.032 145.245L203.456 139.754L201.402 136.945L201.762 136.265L203.772 139.04L206.142 133.675ZM199.422 139.945L200.672 141.465L199.342 144.325V143.065L198.782 143.405L198.812 141.775L199.372 141.445L199.422 139.945V139.945ZM201.582 137.965L201.322 143.995L200.872 144.295L201.122 138.285L201.582 137.965V137.965ZM203.692 141.115L204.762 142.525L202.462 143.925L203.692 141.115V141.115ZM191.442 141.555C191.492 141.555 191.462 142.245 191.292 142.585C191.232 142.705 191.122 142.835 191.032 142.845C190.942 142.855 190.902 142.755 190.952 142.495C191.002 142.235 191.392 141.555 191.442 141.555ZM202.082 138.785L203.142 140.095L201.902 142.545L202.082 138.785ZM194.482 140.305C194.522 140.315 194.492 141.005 194.332 141.335C194.272 141.455 194.162 141.585 194.072 141.595C193.982 141.605 193.942 141.505 193.992 141.245C194.042 140.985 194.432 140.305 194.482 140.305ZM198.922 118.465L187.222 125.025L186.612 141.395L198.222 134.555L198.922 118.465V118.465ZM206.632 134.895L206.352 140.915L205.952 141.175L206.222 135.165L206.632 134.895ZM193.382 139.855C193.432 139.855 193.402 140.545 193.232 140.885C193.172 141.005 193.062 141.135 192.972 141.145C192.882 141.155 192.842 141.055 192.892 140.795C192.942 140.535 193.332 139.855 193.382 139.855ZM205.602 136.645L205.442 140.485L204.402 139.245L205.602 136.645ZM208.082 134.815L208.022 136.295L208.602 135.975L208.532 137.615L207.972 137.945L207.952 139.295L206.742 137.845L208.082 134.815ZM195.252 137.875C195.302 137.875 195.272 138.565 195.102 138.905C195.042 139.025 194.932 139.155 194.842 139.165C194.752 139.175 194.712 139.075 194.762 138.815C194.812 138.555 195.202 137.875 195.252 137.875ZM205.032 135.555L203.792 138.395L202.722 136.945L205.032 135.555V135.555ZM196.202 121.945L196.052 126.065C195.992 127.465 194.872 130.005 193.202 131.065L193.022 134.955L195.252 134.475L189.822 137.615L192.082 135.465L192.202 131.645C190.752 132.475 189.592 130.935 189.662 129.375L189.792 125.595L190.772 125.065L191.092 126.885L190.562 127.315L191.732 130.705L191.282 127.615L191.682 127.155L191.372 124.725L196.202 121.945V121.945ZM210.402 112.086L199.202 118.346L198.502 134.436L209.602 127.796L210.402 112.086V112.086ZM207.482 125.956L207.342 127.866L200.782 131.746L200.872 129.816L207.482 125.956V125.956ZM202.842 117.706L204.292 120.766L203.202 121.376L202.872 128.246L201.832 128.846L202.032 121.976L200.982 122.606L202.842 117.706V117.706ZM206.482 115.686L207.892 118.696L206.732 119.346L206.492 126.166L205.382 126.786L205.732 119.916L204.642 120.536L206.482 115.686V115.686Z" fill="#322214"/>
<path d="M183.733 60.838L144.144 97.637C143.024 98.707 142.284 100.307 142.314 101.137C142.294 101.177 142.194 101.207 142.154 101.137C142.204 100.497 141.794 100.057 141.494 99.987C141.644 100.007 141.784 100.057 141.824 99.867C141.844 99.747 141.874 99.607 141.924 99.457C141.964 99.327 142.024 99.187 142.094 99.037C142.334 98.497 142.724 97.877 143.204 97.397L183.133 60.058L183.733 60.838V60.838Z" fill="#D7AA77"/>
<path d="M175.003 105.476C175.003 105.586 175.053 105.636 175.123 105.606L187.013 99.506C187.033 99.496 187.043 99.476 187.053 99.436L187.713 79.947C187.733 78.877 188.333 77.817 189.153 77.087L228.64 41.6L216.62 46.75L176.932 82.708C175.912 83.708 175.562 84.888 175.542 85.888L175.002 105.478L175.003 105.476Z" fill="url(#paint13_linear_13_23)"/>
<path d="M183.733 60.838L255.99 29.879L255.55 29.279L183.143 60.048L183.733 60.838Z" fill="#F8CE93"/>
</g>
<defs>
<linearGradient id="paint0_linear_13_23" x1="175.629" y1="169.429" x2="176.001" y2="170.017" gradientUnits="userSpaceOnUse">
<stop/>
<stop offset="1" stop-opacity="0"/>
</linearGradient>
<linearGradient id="paint1_linear_13_23" x1="92.5591" y1="174.071" x2="92.5109" y2="174.201" gradientUnits="userSpaceOnUse">
<stop/>
<stop offset="1" stop-opacity="0"/>
</linearGradient>
<linearGradient id="paint2_linear_13_23" x1="109.285" y1="62.9067" x2="115.616" y2="65.531" gradientUnits="userSpaceOnUse">
<stop stop-color="#C37A44"/>
<stop offset="0.4442" stop-color="#BB713D"/>
<stop offset="0.6406" stop-color="#A05728"/>
<stop offset="1" stop-color="#964E23"/>
</linearGradient>
<linearGradient id="paint3_linear_13_23" x1="78.4497" y1="39.4703" x2="64.7155" y2="20.1927" gradientUnits="userSpaceOnUse">
<stop stop-color="#E9B880"/>
<stop offset="1" stop-color="#E4AF76"/>
</linearGradient>
<linearGradient id="paint4_linear_13_23" x1="89.691" y1="54.0034" x2="89.4312" y2="53.2878" gradientUnits="userSpaceOnUse">
<stop stop-color="#C37A45" stop-opacity="0"/>
<stop offset="0.1334" stop-color="#C37A45"/>
<stop offset="0.2945" stop-color="#D08D55"/>
<stop offset="0.5021" stop-color="#DEA167"/>
<stop offset="0.6966" stop-color="#E8AF73"/>
<stop offset="0.8631" stop-color="#ECB477"/>
<stop offset="1" stop-color="#ECB477" stop-opacity="0"/>
</linearGradient>
<linearGradient id="paint5_linear_13_23" x1="150.756" y1="60.3717" x2="138.196" y2="89.2371" gradientUnits="userSpaceOnUse">
<stop offset="0.0881" stop-color="#AF6938"/>
<stop offset="0.4829" stop-color="#9A5227"/>
<stop offset="0.7792" stop-color="#8D4520"/>
</linearGradient>
<linearGradient id="paint6_linear_13_23" x1="169.636" y1="35.9371" x2="176.893" y2="22.8893" gradientUnits="userSpaceOnUse">
<stop offset="0.0327" stop-color="#E4AF76"/>
<stop offset="1" stop-color="#E9B880"/>
</linearGradient>
<linearGradient id="paint7_linear_13_23" x1="154.19" y1="51.5562" x2="154.276" y2="51.1748" gradientUnits="userSpaceOnUse">
<stop stop-color="#AF6A38" stop-opacity="0"/>
<stop offset="0.086" stop-color="#AF6A38"/>
<stop offset="0.1977" stop-color="#B87542"/>
<stop offset="0.5828" stop-color="#D59C66"/>
<stop offset="0.7771" stop-color="#E4AF76"/>
<stop offset="0.9239" stop-color="#E4AF76" stop-opacity="0"/>
</linearGradient>
<linearGradient id="paint8_linear_13_23" x1="117.925" y1="64.9155" x2="120.825" y2="64.9155" gradientUnits="userSpaceOnUse">
<stop stop-color="#743F1A" stop-opacity="0"/>
<stop offset="0.4929" stop-color="#743F1A" stop-opacity="0.887"/>
<stop offset="0.5" stop-color="#743F1A" stop-opacity="0.9"/>
<stop offset="0.5297" stop-color="#743F1A" stop-opacity="0.847"/>
<stop offset="1" stop-color="#743F1A" stop-opacity="0"/>
</linearGradient>
<linearGradient id="paint9_linear_13_23" x1="92.1455" y1="173.597" x2="92.169" y2="173.535" gradientUnits="userSpaceOnUse">
<stop stop-color="#322214"/>
<stop offset="0.2397" stop-color="#322314" stop-opacity="0.989"/>
<stop offset="1" stop-color="#322214" stop-opacity="0"/>
</linearGradient>
<linearGradient id="paint10_linear_13_23" x1="72.6693" y1="73.614" x2="71.8731" y2="76.2706" gradientUnits="userSpaceOnUse">
<stop offset="0.0476" stop-color="#C69866"/>
<stop offset="0.4156" stop-color="#BA8C5E"/>
<stop offset="0.8135" stop-color="#B5875B"/>
</linearGradient>
<linearGradient id="paint11_linear_13_23" x1="75.6112" y1="82.6488" x2="56.7373" y2="61.6871" gradientUnits="userSpaceOnUse">
<stop stop-color="#845F35"/>
<stop offset="0.4311" stop-color="#91673C"/>
<stop offset="0.4407" stop-color="#976A40"/>
<stop offset="0.8737" stop-color="#986B40"/>
<stop offset="1" stop-color="#AB8157"/>
</linearGradient>
<linearGradient id="paint12_linear_13_23" x1="176.353" y1="169.111" x2="176.398" y2="169.182" gradientUnits="userSpaceOnUse">
<stop stop-color="#322214" stop-opacity="0"/>
<stop offset="1" stop-color="#322214"/>
</linearGradient>
<linearGradient id="paint13_linear_13_23" x1="199.491" y1="81.6879" x2="203.131" y2="63.2779" gradientUnits="userSpaceOnUse">
<stop stop-color="#A9794B"/>
<stop offset="0.3857" stop-color="#AE7F53"/>
<stop offset="0.4557" stop-color="#AC7D50"/>
<stop offset="0.6236" stop-color="#A9794B"/>
<stop offset="1" stop-color="#B2875D"/>
</linearGradient>
<clipPath id="clip0_13_23">
<rect width="256" height="193" fill="white"/>
</clipPath>
</defs>
</svg>
