<svg width="256" height="335" viewBox="0 0 256 335" fill="none" xmlns="http://www.w3.org/2000/svg">
<path d="M256 110.133C256 90.449 250.845 71.996 241.765 56.003C217.688 31.223 165.316 25.483 152.311 55.886C138.955 87.052 174.748 121.732 190.389 118.978C210.307 115.464 186.874 69.77 186.874 69.77C217.336 127.18 210.307 109.605 155.24 162.329C100.174 215.052 43.9359 326.297 35.7349 330.984C35.3829 331.218 35.0319 331.394 34.6219 331.57H250.61C254.417 331.57 256.878 327.528 255.179 324.13L198.707 212.357C197.477 209.955 198.355 206.967 200.698 205.62C233.74 186.64 256 151.022 256 110.133Z" fill="url(#paint0_linear_16_4)"/>
<path d="M256 110.133C256 90.449 250.845 71.996 241.765 56.003C217.688 31.223 165.316 25.483 152.311 55.886C138.955 87.052 174.748 121.732 190.389 118.978C210.307 115.464 186.874 69.77 186.874 69.77C217.336 127.18 210.307 109.605 155.24 162.329C100.174 215.052 43.9359 326.297 35.7349 330.984C35.3829 331.218 35.0319 331.394 34.6219 331.57H250.61C254.417 331.57 256.878 327.528 255.179 324.13L198.707 212.357C197.477 209.955 198.355 206.967 200.698 205.62C233.74 186.64 256 151.022 256 110.133Z" fill="url(#paint1_linear_16_4)"/>
<path d="M35.735 330.984C43.935 326.297 100.174 214.994 155.24 162.27C210.307 109.547 217.336 127.121 186.874 69.712C186.874 69.712 70.297 233.153 28.119 313.995" fill="url(#paint2_linear_16_4)"/>
<path d="M52.137 184.53C130.87 39.778 141.181 25.19 182.187 25.19C203.746 25.19 225.479 34.914 239.539 52.196C220.383 21.324 186.464 0.644021 147.625 0.059021H13.884C12.5326 0.0598155 11.2368 0.596937 10.2811 1.55242C9.32542 2.50791 8.78805 3.80363 8.78699 5.15502V274.746C16.754 254.184 30.287 224.776 52.137 184.531V184.53Z" fill="url(#paint3_linear_16_4)"/>
<path d="M155.24 162.27C100.174 214.993 43.936 326.297 35.735 330.984C27.533 335.67 13.767 336.256 6.44403 328.054C-1.34697 319.326 -13.474 305.208 52.137 184.531C130.87 39.777 141.181 25.19 182.187 25.19C203.746 25.19 225.479 34.914 239.539 52.196C240.3 53.426 241.062 54.715 241.823 56.004C217.746 31.224 165.375 25.483 152.37 55.886C139.013 87.052 174.806 121.732 190.448 118.978C210.365 115.464 186.933 69.77 186.933 69.77C217.336 127.121 210.307 109.547 155.24 162.27Z" fill="url(#paint4_linear_16_4)"/>
<path opacity="0.3" d="M58.581 190.975C137.314 46.22 147.625 31.634 188.631 31.634C206.381 31.634 224.249 38.254 237.84 50.204C223.78 34.153 202.925 25.19 182.188 25.19C141.181 25.19 130.87 39.777 52.138 184.53C-13.475 305.209 -1.34805 319.327 6.44295 328.056C7.55595 329.286 8.84495 330.341 10.193 331.219C3.33795 321.26 0.291954 298.12 58.58 190.975H58.581Z" fill="url(#paint5_linear_16_4)"/>
<defs>
<linearGradient id="paint0_linear_16_4" x1="94.0044" y1="178.118" x2="185.416" y2="190.039" gradientUnits="userSpaceOnUse">
<stop stop-color="#FF6533"/>
<stop offset="0.157" stop-color="#FF5633"/>
<stop offset="0.434" stop-color="#FF4333"/>
<stop offset="0.714" stop-color="#FF3733"/>
<stop offset="1" stop-color="#FF3333"/>
</linearGradient>
<linearGradient id="paint1_linear_16_4" x1="79.8937" y1="148.21" x2="261.775" y2="226.891" gradientUnits="userSpaceOnUse">
<stop stop-color="#BF3338"/>
<stop offset="1" stop-color="#FF3333"/>
</linearGradient>
<linearGradient id="paint2_linear_16_4" x1="85.1696" y1="172.907" x2="113.811" y2="186.657" gradientUnits="userSpaceOnUse">
<stop stop-color="#FF6533"/>
<stop offset="0.157" stop-color="#FF5633"/>
<stop offset="0.434" stop-color="#FF4333"/>
<stop offset="0.714" stop-color="#FF3733"/>
<stop offset="1" stop-color="#FF3333"/>
</linearGradient>
<linearGradient id="paint3_linear_16_4" x1="127.772" y1="215.26" x2="117.84" y2="114.789" gradientUnits="userSpaceOnUse">
<stop stop-color="#FF6533"/>
<stop offset="0.157" stop-color="#FF5633"/>
<stop offset="0.434" stop-color="#FF4333"/>
<stop offset="0.714" stop-color="#FF3733"/>
<stop offset="1" stop-color="#FF3333"/>
</linearGradient>
<linearGradient id="paint4_linear_16_4" x1="97.3175" y1="171.18" x2="133.723" y2="186.3" gradientUnits="userSpaceOnUse">
<stop stop-color="#FBB040"/>
<stop offset="1" stop-color="#FB8840"/>
</linearGradient>
<linearGradient id="paint5_linear_16_4" x1="131.416" y1="43.209" x2="75.5794" y2="413.661" gradientUnits="userSpaceOnUse">
<stop stop-color="white"/>
<stop offset="1" stop-color="white" stop-opacity="0"/>
</linearGradient>
</defs>
</svg>
