<svg width="32" height="32" viewBox="0 0 32 32" fill="none" xmlns="http://www.w3.org/2000/svg">
<path d="M29.884 6.146L16.742 29.646C16.6803 29.7565 16.5903 29.8487 16.4813 29.913C16.3722 29.9773 16.2481 30.0114 16.1215 30.0119C15.9949 30.0124 15.8704 29.9793 15.7609 29.9159C15.6513 29.8524 15.5606 29.761 15.498 29.651L2.09601 6.148C2.02863 6.03008 1.99628 5.89538 2.00277 5.75971C2.00925 5.62405 2.05429 5.49305 2.13261 5.38208C2.21092 5.27111 2.31927 5.18479 2.44492 5.13323C2.57057 5.08167 2.70833 5.06703 2.84201 5.091L15.998 7.443C16.0817 7.45806 16.1674 7.45806 16.251 7.443L29.132 5.095C29.2652 5.07067 29.4025 5.0847 29.528 5.13545C29.6535 5.1862 29.762 5.27158 29.8408 5.38164C29.9197 5.4917 29.9656 5.6219 29.9732 5.75706C29.9809 5.89221 29.9499 6.02676 29.884 6.145V6.146Z" fill="url(#paint0_linear_13_15)"/>
<path d="M22.264 2.007L12.54 3.912C12.4622 3.9272 12.3916 3.96789 12.3395 4.02764C12.2873 4.0874 12.2565 4.16282 12.252 4.242L11.654 14.346C11.6507 14.4014 11.6604 14.4569 11.6823 14.5079C11.7041 14.5589 11.7376 14.6042 11.7801 14.64C11.8225 14.6758 11.8727 14.7012 11.9267 14.7143C11.9806 14.7273 12.0369 14.7275 12.091 14.715L14.798 14.09C14.8563 14.0765 14.9171 14.0779 14.9747 14.0941C15.0324 14.1102 15.085 14.1406 15.1278 14.1824C15.1707 14.2243 15.2023 14.2762 15.2198 14.3334C15.2373 14.3907 15.2401 14.4514 15.228 14.51L14.424 18.449C14.4116 18.5096 14.4152 18.5725 14.4344 18.6313C14.4536 18.6901 14.4878 18.743 14.5335 18.7846C14.5793 18.8263 14.6351 18.8553 14.6955 18.8689C14.7559 18.8824 14.8188 18.8801 14.878 18.862L16.55 18.354C16.6093 18.3359 16.6723 18.3335 16.7328 18.3471C16.7933 18.3607 16.8492 18.3898 16.895 18.4316C16.9408 18.4734 16.975 18.5264 16.9941 18.5853C17.0132 18.6443 17.0166 18.7073 17.004 18.768L15.725 24.955C15.645 25.342 16.16 25.553 16.375 25.222L16.518 25L24.443 9.185C24.4728 9.12541 24.4852 9.05869 24.4791 8.99237C24.4729 8.92606 24.4483 8.8628 24.408 8.80974C24.3677 8.75668 24.3134 8.71595 24.2512 8.69213C24.189 8.66832 24.1214 8.66239 24.056 8.675L21.269 9.212C21.209 9.22348 21.1471 9.21938 21.0891 9.20008C21.0312 9.18079 20.9791 9.14695 20.938 9.1018C20.8969 9.05665 20.868 9.0017 20.8542 8.94221C20.8403 8.88271 20.842 8.82066 20.859 8.762L22.677 2.456C22.6941 2.39714 22.6958 2.33487 22.6819 2.27517C22.668 2.21547 22.6389 2.16036 22.5975 2.11515C22.5562 2.06994 22.5038 2.03614 22.4456 2.01703C22.3873 1.99791 22.3251 1.99411 22.265 2.006L22.264 2.007Z" fill="url(#paint1_linear_13_15)"/>
<defs>
<linearGradient id="paint0_linear_13_15" x1="1.76853" y1="4.25086" x2="18.1237" y2="26.4625" gradientUnits="userSpaceOnUse">
<stop stop-color="#41D1FF"/>
<stop offset="1" stop-color="#BD34FE"/>
</linearGradient>
<linearGradient id="paint1_linear_13_15" x1="15.242" y1="2.52378" x2="18.2006" y2="22.8193" gradientUnits="userSpaceOnUse">
<stop stop-color="#FFEA83"/>
<stop offset="0.083" stop-color="#FFDD35"/>
<stop offset="1" stop-color="#FFA800"/>
</linearGradient>
</defs>
</svg>
