<svg width="256" height="277" viewBox="0 0 256 277" fill="none" xmlns="http://www.w3.org/2000/svg">
<path d="M202.968 0V148.146C202.968 189.551 169.405 223.113 128 223.113C86.595 223.113 53.032 189.551 53.032 148.146V0H106.068V148.146C106.068 153.963 108.379 159.541 112.492 163.654C116.605 167.767 122.183 170.078 128 170.078C133.817 170.078 139.395 167.767 143.508 163.654C147.621 159.541 149.932 153.963 149.932 148.146V0H202.968Z" fill="#35495E"/>
<path d="M256 0V148.146C256 218.84 198.694 276.165 128 276.165C57.306 276.165 0 218.84 0 148.145V0H53.032V148.146C53.032 189.551 86.598 223.113 128 223.113C169.402 223.113 202.968 189.551 202.968 148.146V0H256Z" fill="#41B883"/>
</svg>
