<svg width="256" height="290" viewBox="0 0 256 290" fill="none" xmlns="http://www.w3.org/2000/svg">
<path d="M128 0.0480042L256 72.453V217.31L128 289.715L0 217.31V72.453L128 0.0480042Z" fill="white"/>
<path d="M233.153 212.287L132.251 269.427V224.99L195.14 190.358L233.153 212.287ZM240.06 206.056V86.654L203.158 107.954V184.754L240.06 206.056V206.056ZM22.46 212.286L123.363 269.38V224.942L60.474 190.358L22.46 212.287V212.286ZM15.553 206.056V86.654L52.456 107.954V184.754L15.553 206.056V206.056ZM19.853 78.926L123.363 20.383V63.373L57.045 99.84L56.513 100.13L19.853 78.925V78.926ZM235.713 78.926L132.251 20.382V63.372L198.521 99.887L199.052 100.177L235.713 78.924V78.926Z" fill="#8ED6FB"/>
<path d="M123.363 214.847L61.343 180.697V113.123L123.363 148.915V214.847V214.847ZM132.251 214.847L194.271 180.746V113.123L132.251 148.915V214.847V214.847ZM65.497 105.298L127.807 71.052L190.067 105.298L127.807 141.235L65.497 105.298V105.298Z" fill="#1C78C0"/>
</svg>
